<?xml version="1.0" standalone="no"?><!DOCTYPE svg PUBLIC "-//W3C//DTD SVG 1.1//EN" "http://www.w3.org/Graphics/SVG/1.1/DTD/svg11.dtd"><svg t="1716682365531" class="icon" viewBox="0 0 1024 1024" version="1.1" xmlns="http://www.w3.org/2000/svg" p-id="1360" xmlns:xlink="http://www.w3.org/1999/xlink" width="200" height="200"><path d="M512 512m-512 0a512 512 0 1 0 1024 0 512 512 0 1 0-1024 0Z" fill="#A7F9DE" p-id="1361"></path><path d="M674.909091 232.727273a277.410909 277.410909 0 0 0-162.909091 52.829091 277.178182 277.178182 0 0 0-39.330909-23.272728L452.189091 302.545455a231.330909 231.330909 0 0 1 23.272727 13.498181A279.272727 279.272727 0 1 0 674.909091 232.727273z m0 512a231.098182 231.098182 0 0 1-126.370909-37.701818l6.981818-6.981819-34.443636-31.418181c-2.792727 3.258182-6.050909 6.050909-9.076364 9.076363A232.727273 232.727273 0 1 1 674.909091 744.727273zM131.956364 428.450909l-43.52-16.756364a279.272727 279.272727 0 0 0-13.963637 49.57091l46.545455 8.378181a232.727273 232.727273 0 0 1 10.938182-41.192727zM176.64 355.607273l-34.443636-31.185455a279.272727 279.272727 0 0 0-30.952728 41.192727l39.563637 23.272728a232.727273 232.727273 0 0 1 25.832727-33.28zM116.363636 512H69.818182a279.272727 279.272727 0 0 0 4.887273 51.2l46.545454-8.610909A234.123636 234.123636 0 0 1 116.363636 512zM244.829091 303.941818l-20.945455-41.658182a280.901818 280.901818 0 0 0-43.752727 27.229091L209.454545 325.818182a234.589091 234.589091 0 0 1 35.374546-21.876364zM132.189091 596.48l-43.287273 16.756364a275.549091 275.549091 0 0 0 23.272727 46.545454l39.563637-24.669091a230.4 230.4 0 0 1-19.549091-38.632727zM424.727273 242.967273a279.272727 279.272727 0 0 0-50.734546-9.309091l-4.189091 46.545454a232.727273 232.727273 0 0 1 42.123637 7.68zM325.818182 279.272727l-4.421818-46.545454a276.712727 276.712727 0 0 0-50.734546 9.541818l12.8 44.683636A232.727273 232.727273 0 0 1 325.818182 279.272727z" fill="#1CD38D" p-id="1362"></path><path d="M577.861818 554.821818l46.545455 8.378182A281.6 281.6 0 0 0 628.363636 512h-46.545454a235.985455 235.985455 0 0 1-3.956364 42.821818zM554.821818 323.025455l-34.210909 31.418181a237.149091 237.149091 0 0 1 26.065455 34.210909l39.563636-24.66909a282.065455 282.065455 0 0 0-31.418182-40.96zM547.141818 634.414545l39.563637 24.436364a279.272727 279.272727 0 0 0 23.272727-46.545454l-43.52-16.756364a232.727273 232.727273 0 0 1-19.316364 38.865454zM577.629091 468.247273l46.545454-8.610909a277.410909 277.410909 0 0 0-14.196363-49.570909l-43.287273 16.98909a229.701818 229.701818 0 0 1 10.938182 41.192728zM327.912727 744.727273l-4.189091 46.545454H349.090909c8.610909 0 17.454545 0 26.065455-1.163636l-4.189091-46.545455a238.312727 238.312727 0 0 1-43.054546 1.163637zM224.814545 762.181818a279.272727 279.272727 0 0 0 48.174546 18.618182l12.567273-44.916364a232.727273 232.727273 0 0 1-40.029091-14.429091zM142.894545 700.509091a279.272727 279.272727 0 0 0 38.167273 34.676364L209.454545 698.181818a232.727273 232.727273 0 0 1-31.650909-28.858182zM413.090909 735.883636l12.8 44.683637a279.272727 279.272727 0 0 0 47.941818-18.618182l-20.945454-40.494546a232.727273 232.727273 0 0 1-39.796364 14.429091z" fill="#1CD38D" p-id="1363"></path></svg>